<?xml version="1.0" encoding="UTF-8"?>
<svg width="28px" height="22px" viewBox="0 0 28 22" version="1.1" xmlns="http://www.w3.org/2000/svg" xmlns:xlink="http://www.w3.org/1999/xlink">
    <!-- Generator: Sketch 46.2 (44496) - http://www.bohemiancoding.com/sketch -->
    <title>Twitter_Logo</title>
    <desc>Created with Sketch.</desc>
    <defs></defs>
    <g id="Comps" stroke="none" stroke-width="1" fill="none" fill-rule="evenodd">
        <g id="Desktop-HD-Work" transform="translate(-1010.000000, -921.000000)">
            <g id="Twitter_Logo" transform="translate(1008.000000, 916.000000)">
                <path d="M11.1122368,26.7784874 C21.1162856,26.7784874 26.5903993,18.4824469 26.5903993,11.3003249 C26.5903993,11.0669324 26.5903993,10.83354 26.5797906,10.6001476 C27.6406653,9.83631774 28.5636263,8.87092172 29.2956299,7.77822074 C28.3196252,8.21317938 27.2693592,8.49961556 26.1660494,8.63752928 C27.2905767,7.96917819 28.1498852,6.8976947 28.5636263,5.62464501 C27.5133604,6.25056111 26.3463981,6.6961285 25.1051747,6.94012969 C24.1079524,5.87925495 22.696989,5.22151261 21.1375031,5.22151261 C18.1352276,5.22151261 15.6952157,7.66152452 15.6952157,10.6638 C15.6952157,11.0881499 15.7482594,11.5018911 15.8331294,11.9050235 C11.313803,11.6822398 7.30369649,9.50744657 4.61968339,6.21873486 C4.1528985,7.02499967 3.88767981,7.95856944 3.88767981,8.9557917 C3.88767981,10.8441487 4.85307583,12.5097221 6.30647423,13.4857269 C5.41533944,13.4539006 4.5772484,13.2098994 3.84524482,12.806767 C3.84524482,12.8279845 3.84524482,12.849202 3.84524482,12.8810283 C3.84524482,15.5119976 5.72299312,17.7186171 8.20544002,18.2172282 C7.74926388,18.3445332 7.27187024,18.4081857 6.77325911,18.4081857 C6.42317045,18.4081857 6.08369053,18.3763594 5.75481936,18.3127069 C6.44438794,20.4768914 8.46004996,22.046986 10.8364094,22.089421 C8.96926983,23.5534282 6.62473665,24.4233455 4.07863727,24.4233455 C3.64367862,24.4233455 3.20871998,24.402128 2.78437008,24.3490842 C5.181947,25.8767439 8.04630881,26.7784874 11.1122368,26.7784874" id="Shape" fill="#151815" fill-rule="nonzero"></path>
                <rect id="Rectangle-6" x="0" y="0" width="32" height="32"></rect>
            </g>
        </g>
    </g>
</svg>