<?xml version="1.0" encoding="UTF-8"?>
<svg width="32px" height="32px" viewBox="0 0 32 32" version="1.1" xmlns="http://www.w3.org/2000/svg" xmlns:xlink="http://www.w3.org/1999/xlink">
    <!-- Generator: Sketch 46.2 (44496) - http://www.bohemiancoding.com/sketch -->
    <title>Codepen</title>
    <desc>Created with Sketch.</desc>
    <defs></defs>
    <g id="Comps" stroke="none" stroke-width="1" fill="none" fill-rule="evenodd">
        <g id="Desktop-HD-Work" transform="translate(-1200.000000, -916.000000)" fill-rule="nonzero" fill="#151815">
            <g id="Codepen" transform="translate(1200.000000, 916.000000)">
                <polygon id="Shape" points="7.83122363 14.5620253 7.83122363 17.3974684 9.95105485 15.9797468"></polygon>
                <polygon id="Shape" points="15.1561181 12.4962025 15.1561181 8.54008439 8.50632911 12.9755274 11.4767932 14.9603376"></polygon>
                <polygon id="Shape" points="23.5004219 12.9755274 16.8506329 8.54008439 16.8506329 12.4962025 20.5299578 14.9603376"></polygon>
                <polygon id="Shape" points="8.50632911 18.9907173 15.1561181 23.4194093 15.1561181 19.4632911 11.4767932 16.9991561"></polygon>
                <polygon id="Shape" points="16.8506329 19.4632911 16.8506329 23.4194093 23.5004219 18.9907173 20.5299578 16.9991561"></polygon>
                <polygon id="Shape" points="16.0067511 13.9746835 13.0025316 15.9797468 16.0067511 17.9848101 19.0042194 15.9797468"></polygon>
                <path d="M16.0067511,0.0135021097 C7.18987342,0.0135021097 0.0405063291,7.1628692 0.0405063291,15.9797468 C0.0405063291,24.7966245 7.18987342,31.9459916 16.0067511,31.9459916 C24.8236287,31.9459916 31.9729958,24.7966245 31.9729958,15.9797468 C31.9729958,7.1628692 24.8236287,0.0135021097 16.0067511,0.0135021097 Z M25.8767932,18.9907173 C25.8767932,19.0312236 25.8767932,19.0649789 25.8700422,19.0987342 C25.8700422,19.1122363 25.8632911,19.1257384 25.8632911,19.1324895 C25.8565401,19.1594937 25.8565401,19.1797468 25.849789,19.2067511 C25.843038,19.2202532 25.843038,19.2337553 25.8362869,19.2472574 C25.8295359,19.2675105 25.8227848,19.2877637 25.8160338,19.3080169 C25.8092827,19.321519 25.8025316,19.3350211 25.7957806,19.3485232 C25.7890295,19.3687764 25.7755274,19.3890295 25.7687764,19.4025316 C25.7620253,19.4160338 25.7552743,19.4295359 25.7417722,19.443038 C25.72827,19.4632911 25.721519,19.4767932 25.7080169,19.4970464 C25.7012658,19.5105485 25.6877637,19.5240506 25.6810127,19.5308017 C25.6675105,19.5443038 25.6540084,19.564557 25.6405063,19.5780591 C25.6270042,19.5915612 25.6202532,19.5983122 25.6067511,19.6118143 C25.5932489,19.6253165 25.5729958,19.6388186 25.5594937,19.6523207 C25.5459916,19.6590717 25.5324895,19.6725738 25.5189873,19.6793249 C25.5122363,19.6793249 25.5122363,19.6860759 25.5054852,19.692827 L16.4725738,25.7147679 C16.3308017,25.8092827 16.1687764,25.8565401 16,25.8565401 C15.8379747,25.8565401 15.6691983,25.8092827 15.5274262,25.7147679 L6.50126582,19.6995781 C6.49451477,19.6995781 6.49451477,19.692827 6.48776371,19.6860759 C6.4742616,19.6793249 6.46075949,19.6658228 6.44725738,19.6590717 C6.43375527,19.6455696 6.41350211,19.6320675 6.4,19.6185654 C6.38649789,19.6050633 6.37974684,19.5983122 6.36624473,19.5848101 C6.35274262,19.571308 6.33924051,19.5578059 6.3257384,19.5375527 C6.31898734,19.5240506 6.30548523,19.5105485 6.29873418,19.5037975 C6.28523207,19.4902954 6.27172996,19.4700422 6.2649789,19.449789 C6.25822785,19.4362869 6.25147679,19.4227848 6.23797468,19.4092827 C6.22447257,19.3890295 6.21772152,19.3687764 6.21097046,19.3552743 C6.20421941,19.3417722 6.19746835,19.32827 6.1907173,19.3147679 C6.18396624,19.2945148 6.17721519,19.2742616 6.17046414,19.2540084 C6.16371308,19.2405063 6.16371308,19.2270042 6.15696203,19.2135021 C6.15021097,19.1932489 6.14345992,19.1662447 6.14345992,19.1392405 C6.14345992,19.1257384 6.13670886,19.1122363 6.13670886,19.1054852 C6.12995781,19.07173 6.12995781,19.0312236 6.12995781,18.9974684 L6.12995781,12.9822785 C6.12995781,12.9417722 6.12995781,12.9080169 6.13670886,12.8742616 C6.13670886,12.8607595 6.14345992,12.8472574 6.14345992,12.8405063 C6.15021097,12.8135021 6.15021097,12.7932489 6.15696203,12.7662447 C6.16371308,12.7527426 6.16371308,12.7392405 6.17046414,12.7257384 C6.17721519,12.7054852 6.18396624,12.6852321 6.1907173,12.6649789 C6.19746835,12.6514768 6.20421941,12.6379747 6.21097046,12.6244726 C6.21772152,12.6042194 6.23122363,12.5839662 6.23797468,12.5704641 C6.24472574,12.556962 6.25147679,12.5434599 6.2649789,12.5299578 C6.27848101,12.5097046 6.28523207,12.4962025 6.29873418,12.4759494 C6.30548523,12.4624473 6.31898734,12.4489451 6.3257384,12.4421941 C6.33924051,12.428692 6.35274262,12.4084388 6.36624473,12.3949367 C6.37974684,12.3814346 6.38649789,12.3746835 6.4,12.3611814 C6.41350211,12.3476793 6.43375527,12.3341772 6.44725738,12.3206751 C6.46075949,12.3139241 6.4742616,12.3004219 6.48776371,12.2936709 C6.49451477,12.2936709 6.49451477,12.2869198 6.50126582,12.2801688 L15.5274262,6.2649789 C15.8109705,6.07594937 16.1822785,6.07594937 16.4658228,6.2649789 L25.4919831,12.2801688 C25.4987342,12.2801688 25.4987342,12.2869198 25.5054852,12.2936709 C25.5189873,12.3004219 25.5324895,12.3139241 25.5459916,12.3206751 C25.5594937,12.3341772 25.5797468,12.3476793 25.5932489,12.3611814 C25.6067511,12.3746835 25.6135021,12.3814346 25.6270042,12.3949367 C25.6405063,12.4084388 25.6540084,12.4219409 25.6675105,12.4421941 C25.6810127,12.4556962 25.6877637,12.4691983 25.6945148,12.4759494 C25.7080169,12.4894515 25.721519,12.5097046 25.72827,12.5299578 C25.7350211,12.5434599 25.7417722,12.556962 25.7552743,12.5704641 C25.7687764,12.5907173 25.7755274,12.6042194 25.7822785,12.6244726 C25.7890295,12.6379747 25.7957806,12.6514768 25.8025316,12.6649789 C25.8092827,12.6852321 25.8160338,12.7054852 25.8227848,12.7257384 C25.8295359,12.7392405 25.8295359,12.7527426 25.8362869,12.7662447 C25.843038,12.7864979 25.849789,12.8135021 25.849789,12.8405063 C25.849789,12.8540084 25.8565401,12.8675105 25.8565401,12.8742616 C25.8632911,12.9080169 25.8632911,12.9485232 25.8632911,12.9822785 L25.8632911,18.9907173 L25.8767932,18.9907173 Z" id="Shape"></path>
                <polygon id="Shape" points="24.1822785 17.3974684 24.1822785 14.5620253 22.0556962 15.9797468"></polygon>
            </g>
        </g>
    </g>
</svg>