<?xml version="1.0" encoding="UTF-8"?>
<svg width="32px" height="32px" viewBox="0 0 32 32" version="1.1" xmlns="http://www.w3.org/2000/svg" xmlns:xlink="http://www.w3.org/1999/xlink">
    <!-- Generator: Sketch 46.2 (44496) - http://www.bohemiancoding.com/sketch -->
    <title>LinkedIn</title>
    <desc>Created with Sketch.</desc>
    <defs></defs>
    <g id="Comps" stroke="none" stroke-width="1" fill="none" fill-rule="evenodd">
        <g id="Desktop-HD-Work" transform="translate(-1072.000000, -916.000000)" fill-rule="nonzero">
            <g id="LinkedIn" transform="translate(1072.000000, 916.000000)">
                <path d="M29.896365,32 L2.10363496,32 C0.940448569,32 0,31.037213 0,29.8463975 L0,2.15360253 C0,0.962787015 0.940448569,0 2.10363496,0 L29.896365,0 C31.0595514,0 32,0.962787015 32,2.15360253 L32,29.8463975 C32,31.037213 31.0595514,32 29.896365,32 Z" id="Shape" fill="#000000"></path>
                <g id="Group" transform="translate(4.800000, 4.800000)" fill="#FFFFFF">
                    <path d="M13.071799,22.5987034 C11.4470557,22.5987034 9.97001622,22.5987034 8.44374213,22.5987034 C8.44374213,17.626004 8.44374213,12.7025392 8.44374213,7.70522241 C9.87154692,7.70522241 11.2747344,7.70522241 12.7517738,7.70522241 C12.7763911,8.24680354 12.8010085,8.78838466 12.8256258,9.45305241 C13.1702683,9.15764452 13.4164416,8.91147128 13.6626148,8.68991537 C15.4350621,7.04055466 18.2906717,6.62206015 20.4323789,7.75445706 C22.2540609,8.71453269 22.7710247,10.4623627 22.8202593,12.308662 C22.9187286,15.7058527 22.8448767,19.1030434 22.8448767,22.5740861 C21.3186026,22.5740861 19.8169458,22.5740861 18.1922024,22.5740861 C18.1922024,20.3339096 18.1922024,18.0937331 18.1922024,15.8535566 C18.1922024,15.0658023 18.2168198,14.3026652 18.1183505,13.5149109 C17.9952638,12.4317486 17.5767693,11.5209076 16.3212858,11.3485864 C15.0904196,11.1762651 13.9580227,11.7178462 13.5149109,12.8502431 C13.2441203,13.5149109 13.0964164,14.2780479 13.071799,14.9919503 C13.0225644,17.4783 13.071799,19.9646498 13.071799,22.5987034 Z" id="Shape"></path>
                    <path d="M5.31734198,22.5740861 C3.76645057,22.5740861 2.28941113,22.5740861 0.787754368,22.5740861 C0.787754368,17.6013867 0.787754368,12.7025392 0.787754368,7.70522241 C2.26479381,7.70522241 3.76645057,7.70522241 5.31734198,7.70522241 C5.31734198,12.6533045 5.31734198,17.5767693 5.31734198,22.5740861 Z" id="Shape"></path>
                    <path d="M3.00331353,5.66198452 C1.47703944,5.63736719 0.196938592,4.35726635 0.221555916,2.83099226 C0.24617324,1.30471817 1.52627409,0 3.02793085,0 C4.57882226,0 5.90815776,1.35395282 5.88354043,2.90484423 C5.85892311,4.40650099 4.55420494,5.68660184 3.00331353,5.66198452 Z" id="Shape"></path>
                </g>
            </g>
        </g>
    </g>
</svg>