<?xml version="1.0" encoding="UTF-8"?>
<svg width="32px" height="32px" viewBox="0 0 32 32" version="1.1" xmlns="http://www.w3.org/2000/svg" xmlns:xlink="http://www.w3.org/1999/xlink">
    <!-- Generator: Sketch 46.2 (44496) - http://www.bohemiancoding.com/sketch -->
    <title>GitHub</title>
    <desc>Created with Sketch.</desc>
    <defs></defs>
    <g id="Comps" stroke="none" stroke-width="1" fill="none" fill-rule="evenodd">
        <g id="Desktop-HD-Work" transform="translate(-1136.000000, -916.000000)">
            <g id="GitHub" transform="translate(1136.000000, 916.000000)">
                <rect id="Rectangle-6-Copy-2" x="0" y="0" width="32" height="32"></rect>
                <path d="M15.9510703,0 C7.14373089,0 0,7.15935136 0,15.9859489 C0,23.047227 4.59938838,29.0296987 10.8623853,31.1873114 C11.6452599,31.2853847 11.9388379,30.7950182 11.9388379,30.4027249 C11.9388379,30.0104317 11.9388379,29.0296987 11.9388379,27.6566724 C7.5351682,28.6374054 6.55657492,25.4990596 6.55657492,25.4990596 C5.87155963,23.6356668 4.79510703,23.1453003 4.79510703,23.1453003 C3.32721713,22.1645672 4.89296636,22.1645672 4.89296636,22.1645672 C6.4587156,22.2626405 7.33944954,23.8318134 7.33944954,23.8318134 C8.80733945,26.2836461 11.058104,25.5971329 11.9388379,25.2048397 C12.0366972,24.1260333 12.5259939,23.4395202 12.9174312,23.047227 C9.39449541,22.6549338 5.67584098,21.2819075 5.67584098,15.1032892 C5.67584098,13.3379697 6.26299694,11.9649434 7.33944954,10.7880637 C7.14373089,10.3957705 6.65443425,8.72852426 7.5351682,6.57091152 C7.5351682,6.57091152 8.90519878,6.1786183 11.9388379,8.23815773 C13.2110092,7.8458645 14.5810398,7.7477912 15.9510703,7.7477912 C17.3211009,7.7477912 18.6911315,7.94393781 19.9633028,8.23815773 C22.9969419,6.1786183 24.3669725,6.57091152 24.3669725,6.57091152 C25.2477064,8.72852426 24.6605505,10.3957705 24.5626911,10.7880637 C25.5412844,11.8668701 26.2262997,13.3379697 26.2262997,15.1032892 C26.2262997,21.2819075 22.5076453,22.5568604 18.9847095,22.9491537 C19.5718654,23.4395202 20.0611621,24.4202533 20.0611621,25.8913529 C20.0611621,28.0489656 20.0611621,29.7162118 20.0611621,30.3046516 C20.0611621,30.6969449 20.3547401,31.1873114 21.1376147,31.0892381 C27.4984709,28.9316254 32,22.9491537 32,15.8878756 C31.9021407,7.15935136 24.7584098,0 15.9510703,0 Z" id="Shape" fill="#151815"></path>
            </g>
        </g>
    </g>
</svg>