<?xml version="1.0" encoding="utf-8"?>
<!-- Generator: Adobe Illustrator 21.1.0, SVG Export Plug-In . SVG Version: 6.00 Build 0)  -->
<svg version="1.1" id="Layer_1" xmlns="http://www.w3.org/2000/svg" xmlns:xlink="http://www.w3.org/1999/xlink" x="0px" y="0px"
	 viewBox="0 0 288 288" style="enable-background:new 0 0 288 288;" xml:space="preserve">
<style type="text/css">
	.st0{fill:#FFFFFF;}
</style>
<g>
	<g>
		<path class="st0" d="M85.9,164.9c0.5,1.3,1,2.5,1.5,3.8c0.5-1.3,1-2.6,1.5-3.8s1.1-2.4,1.8-3.7L125,98.7c0.6-1.1,1.3-1.7,1.9-2
			c0.7-0.2,1.6-0.4,2.8-0.4h10.1V198h-12.1v-74.7c0-1,0-2.1,0.1-3.2c0-1.1,0.1-2.3,0.2-3.5l-34.8,63.6c-1.2,2.1-2.8,3.2-5,3.2h-2
			c-2.1,0-3.8-1.1-5-3.2l-35.6-63.8c0.1,1.2,0.2,2.4,0.3,3.6s0.1,2.3,0.1,3.3V198H34.1V96.4h10.1c1.2,0,2.2,0.1,2.8,0.4
			c0.7,0.2,1.3,0.9,1.9,2L84,161.4C84.8,162.5,85.4,163.6,85.9,164.9z"/>
	</g>
	<g>
		<path class="st0" d="M242.3,96.4V108h-32.9v90.1h-13.8V108h-33V96.4H242.3z"/>
	</g>
	<rect x="144.6" y="96.4" class="st0" width="3.6" height="101.7"/>
	<rect x="214.2" y="111.7" class="st0" width="3.6" height="86.4"/>
	<rect x="214.2" y="111.7" class="st0" width="28.1" height="3.6"/>
	<rect x="162.7" y="111.7" class="st0" width="30.2" height="3.6"/>
	<polygon class="st0" points="90.2,156.6 88.3,160.5 52.8,96.4 56.9,96.4 	"/>
	<path class="st0" d="M54.9,96.4c0,0,2,0,2.8,1.3L57,96.3L54.9,96.4z"/>
</g>
</svg>
